<svg width="23" height="32" viewBox="0 0 23 32" fill="none" xmlns="http://www.w3.org/2000/svg">
<path d="M11.5429 32L18.0571 25.5429L11.5429 19.0857L9.14286 21.4857L11.6 23.9429C10.5333 23.981 9.49524 23.8095 8.48571 23.4286C7.47619 23.0476 6.57143 22.4571 5.77143 21.6571C5.00952 20.8952 4.42857 20.019 4.02857 19.0286C3.62857 18.0381 3.42857 17.0476 3.42857 16.0571C3.42857 15.4095 3.51429 14.7619 3.68571 14.1143C3.85714 13.4667 4.09524 12.8381 4.4 12.2286L1.88571 9.71429C1.23809 10.6667 0.761904 11.6762 0.457142 12.7429C0.152381 13.8095 0 14.8952 0 16C0 17.4476 0.285714 18.8762 0.857142 20.2857C1.42857 21.6952 2.26667 22.9524 3.37143 24.0571C4.47619 25.1619 5.71429 25.9905 7.08572 26.5429C8.45714 27.0952 9.86667 27.3905 11.3143 27.4286L9.14286 29.6L11.5429 32ZM20.9714 22.2857C21.6191 21.3333 22.0952 20.3238 22.4 19.2571C22.7048 18.1905 22.8571 17.1048 22.8571 16C22.8571 14.5524 22.581 13.1143 22.0286 11.6857C21.4762 10.2571 20.6476 8.99048 19.5429 7.88572C18.4381 6.78095 17.1905 5.9619 15.8 5.42857C14.4095 4.89524 12.9905 4.62857 11.5429 4.62857L13.7143 2.4L11.3143 0L4.8 6.45714L11.3143 12.9143L13.7143 10.5143L11.2 8C12.2286 8 13.2762 8.2 14.3429 8.6C15.4095 9 16.3238 9.58095 17.0857 10.3429C17.8476 11.1048 18.4286 11.981 18.8286 12.9714C19.2286 13.9619 19.4286 14.9524 19.4286 15.9429C19.4286 16.5905 19.3429 17.2381 19.1714 17.8857C19 18.5333 18.7619 19.1619 18.4571 19.7714L20.9714 22.2857Z" fill="white"/>
</svg>
